# xmcd CD database file
#
# Track frame offsets:
#	150
#	28462
#	44557
#	61976
#	82798
#	94472
#	112048
#	128429
#	147960
#	169071
#	190323
#	206539
#	224022
#	241773
#	261920
#	278364
#
# Disc length: 3980 seconds
#
# Revision: 0
# Processed by: cddbd v1.5.2PL0 Copyright (c) Steve Scherf et al.
# Submitted via: CDex 1.70beta2
#
DISCID=ec0f8a10
DTITLE=Various Artist - La Coleccion de Oro - New Age
DYEAR=2011
DGENRE=New Age
TTITLE0=Conquest of Paradise
TTITLE1=Ameno
TTITLE2=September
TTITLE3=Beyond the Invisible
TTITLE4=Braveheart Theme
TTITLE5=Oxigene
TTITLE6=Chariots of Fire
TTITLE7=Sadness
TTITLE8=The Tao of Love
TTITLE9=New World Symphony
TTITLE10=Wonderland
TTITLE11=Hotel Luna
TTITLE12=Barcelona Nights
TTITLE13=Till
TTITLE14=Orinoco Flow
TTITLE15=Spring
EXTD=YEAR: 2011
EXTT0=
EXTT1=
EXTT2=
EXTT3=
EXTT4=
EXTT5=
EXTT6=
EXTT7=
EXTT8=
EXTT9=
EXTT10=
EXTT11=
EXTT12=
EXTT13=
EXTT14=
EXTT15=
PLAYORDER=
